<svg id="Icon-round-Question_mark" xmlns="http://www.w3.org/2000/svg" viewBox="0 0 200 200">
  <defs>
    <style>
      .cls-1 {
        fill: none;
      }

      .cls-2 {
        fill: #fff;
      }
    </style>
  </defs>
  <path id="path2382" class="cls-1" d="M154.979,106.338A97.123,97.123,0,1,1,57.856,9.215a97.123,97.123,0,0,1,97.123,97.123Z" transform="translate(42.143 -6.339)"/>
  <g id="layer1">
    <path id="path2413" class="cls-2" d="M100,0A100,100,0,1,0,200,100,100.036,100.036,0,0,0,100,0Zm0,12.812A87.189,87.189,0,1,1,12.812,100,87.219,87.219,0,0,1,100,12.812Zm1.47,21.25a57.061,57.061,0,0,0-15.282,2.063,41.277,41.277,0,0,0-12.876,6.219,42.292,42.292,0,0,0-8.687,8.531,35.248,35.248,0,0,0-7.063,18.687c-.04.468-.07.868-.062.876s21.7,2.687,21.812,2.687c.053,0,.113-.234.282-.937C81.535,64.1,85.08,58.667,90.562,55.375c4.32-2.594,9.808-3.612,15.778-2.969a22.584,22.584,0,0,1,7.38,2,18.585,18.585,0,0,1,6.94,5.813,15.09,15.09,0,0,1,2.75,7.312,21.594,21.594,0,0,1-.03,3.219,14.75,14.75,0,0,1-1.5,4.969,13.382,13.382,0,0,1-2.76,3.812,139.9,139.9,0,0,1-10.78,9.407,86.216,86.216,0,0,0-8.12,7.343c-4.943,5.179-7.191,9.069-8.564,14.719A49.688,49.688,0,0,0,90.5,124.19c.025,1.4.062,2.73.062,2.97v.43h21.6l.03-2.4a44.123,44.123,0,0,1,.56-7.41c.57-3.27,1.43-5,3.94-7.81a65.708,65.708,0,0,1,6.93-6.47c4.77-3.991,8.11-6.99,11.26-10.125,4.91-4.907,7.46-8.26,9.28-12.187a26.692,26.692,0,0,0,2.46-9.532c.06-.816.07-3.03,0-3.968a31.1,31.1,0,0,0-8.15-19.032c-.8-.909-2.78-2.887-3.72-3.718a40.9,40.9,0,0,0-17.56-9.094,59.021,59.021,0,0,0-13.35-1.75c-.78-.023-1.59-.036-2.37-.032Zm-10.908,103.6v22h22v-22Z"/>
  </g>
</svg>
