<svg id="Capa_1" data-name="Capa 1" xmlns="http://www.w3.org/2000/svg" viewBox="0 0 153 37"><title>Powered by Cognitiva</title><path d="M120,19.71a1,1,0,1,0,1-.95A1,1,0,0,0,120,19.71ZM89.38,27.07c-2,0-2.76-1.71-2.76-3.4s.76-3.48,2.76-3.48A2.19,2.19,0,0,1,91.6,22h2.16a4.12,4.12,0,0,0-4.38-3.65c-3.14,0-5,2.34-5,5.36s1.85,5.28,5,5.28a4.29,4.29,0,0,0,4.47-4.16H91.68A2.28,2.28,0,0,1,89.38,27.07Zm12.89-2a3.81,3.81,0,1,1-7.61,0,3.81,3.81,0,1,1,7.61,0Zm-2,0c0-1.17-.41-2.35-1.79-2.35S96.68,23.86,96.68,25s.41,2.35,1.78,2.35S100.25,26.2,100.25,25Zm8.21-3.68h1.92v6.89c0,1.21-.42,3.26-3.81,3.26-1.45,0-3.15-.69-3.25-2.37h2a1.36,1.36,0,0,0,1.51,1,1.57,1.57,0,0,0,1.62-1.82v-1h0a2.49,2.49,0,0,1-2.2,1.13c-2.21,0-3.15-1.68-3.15-3.7s1.1-3.64,3.16-3.64a2.29,2.29,0,0,1,2.19,1.18h0Zm0,3.59c0-1.2-.41-2.26-1.72-2.26-1.14,0-1.64,1-1.64,2.08s.4,2.21,1.64,2.21A1.81,1.81,0,0,0,108.46,24.94Zm10.17,3.77V24.18c0-1.82-.54-3-2.69-3a2.64,2.64,0,0,0-2.25,1.22h0v-1h-1.92v7.36h2V24.85c0-1.49.47-2.1,1.57-2.1.94,0,1.29.59,1.29,1.8v4.16Zm1.33,0h2V21.35h-2Zm7.38-1.57a3.28,3.28,0,0,1-.63.06c-.68,0-.85-.18-.85-.86V22.7h1.48V21.35h-1.48v-2.2h-2v2.2h-1.23V22.7h1.23V27c0,1.47,1.08,1.75,2.32,1.75a7.34,7.34,0,0,0,1.18-.07Zm.75,1.57h2V21.35h-2Zm2.65-7.36,2.52,7.36h2.25L138,21.35h-2l-1.55,5h0l-1.55-5Zm12.4,2.15c0-.87-.59-1-1.3-1s-1.27.32-1.34,1.11h-2c.11-1.89,1.8-2.46,3.45-2.46,1.47,0,3.24.33,3.24,2.09v3.83a3.88,3.88,0,0,0,.25,1.64h-2a2.9,2.9,0,0,1-.15-.71,3.41,3.41,0,0,1-2.48.91c-1.39,0-2.5-.7-2.5-2.21,0-1.67,1.25-2.06,2.5-2.23S143.14,24.32,143.14,23.5Zm0,1.61a4.08,4.08,0,0,1-1.67.42c-.63.13-1.2.35-1.2,1.08s.59.94,1.24.94a1.49,1.49,0,0,0,1.63-1.69Zm-9.81-12.72s0-.06,0-.09a.36.36,0,0,0-.11-.14.34.34,0,0,0-.17-.05h-.15a.3.3,0,0,0-.11-.14.36.36,0,0,0-.51.06.36.36,0,1,0,.57.44.37.37,0,0,0,.07-.14H133a.05.05,0,0,1,0,0l0,0h0v.27a.31.31,0,0,0-.15.11.36.36,0,1,0,.51-.07.38.38,0,0,0-.13-.06Zm0,1.19a.36.36,0,0,0-.44.58l.06,0v.05a.14.14,0,0,1,0,.07s0,0-.07,0h-.77a.48.48,0,0,0-.28.1.47.47,0,0,0-.14.27v1a.36.36,0,0,0-.16.11.36.36,0,0,0,.06.51.36.36,0,0,0,.51-.06.36.36,0,0,0-.06-.51l0,0v-1a.09.09,0,0,1,0-.07l.07,0h.79a.47.47,0,0,0,.27-.14.42.42,0,0,0,.11-.29V14.2a.45.45,0,0,0,.13-.11A.37.37,0,0,0,133.29,13.58Zm-4.06,3.64a.36.36,0,0,0,.44-.58.36.36,0,0,0-.5.06.41.41,0,0,0,0,.09h-2a.1.1,0,0,1,0,0v-.23a.29.29,0,0,0-.1-.18.27.27,0,0,0-.19-.08h-1a.37.37,0,0,0-.31-.16.36.36,0,0,0,0,.72.37.37,0,0,0,.37-.35h1l0,0a.05.05,0,0,1,0,.05v.2l0,.1a.34.34,0,0,0,.15.14l.11,0h1.92A.43.43,0,0,0,129.23,17.22Zm-1.51-1.48a.38.38,0,0,0-.52.07.36.36,0,0,0,.58.44l0,0h1.75a.24.24,0,0,0,.11-.06.3.3,0,0,0,.14-.2v-.12a.36.36,0,0,0,.16-.11.37.37,0,0,0-.06-.51.37.37,0,0,0-.51.07.34.34,0,0,0,.06.5.27.27,0,0,0,.1.06v.05l0,.06h-1.67A.41.41,0,0,0,127.72,15.74Zm4,1.06a.36.36,0,0,0-.51.06l0,.07h-.94a.24.24,0,0,0-.13,0,.37.37,0,0,0-.15.24.2.2,0,0,0,0,.07v0a.42.42,0,0,0-.15.11.39.39,0,0,0,.06.52.38.38,0,0,0,.52-.07.37.37,0,0,0-.07-.51l-.1-.05v-.05a.12.12,0,0,1,.05-.07l0,0h.86a.36.36,0,1,0,.57-.38Zm-10-10.52v.53a.41.41,0,0,0,.08.19.35.35,0,0,0,.19.1h.6l0,0v.72a.37.37,0,0,0-.2.33.36.36,0,1,0,.72,0,.36.36,0,0,0-.29-.36V7.14a.11.11,0,0,0,0,0,.3.3,0,0,0-.12-.17.18.18,0,0,0-.1,0l0,0h-.55a.06.06,0,0,1,0,0s0,0,0,0V6.27a.06.06,0,0,1,0,0l0,0h.24a.3.3,0,0,0,.19-.08.33.33,0,0,0,.09-.19V5.48a.38.38,0,0,0,.25-.35.36.36,0,0,0-.36-.36.37.37,0,0,0-.37.36.38.38,0,0,0,.25.35v.43l0,0,0,0H122a.32.32,0,0,0-.18.1A.37.37,0,0,0,121.77,6.28Zm-4,1.6s0,0,0,.09V9.24a.47.47,0,0,0,.06.15.38.38,0,0,0,.13.09l.08,0h1.89a.37.37,0,0,0,.14-.07.42.42,0,0,0,.09-.14.25.25,0,0,0,0-.09V7.83a.36.36,0,1,0-.48-.34.35.35,0,0,0,.25.34V9.2s0,0,0,0,0,0,0,0l0,0H118l0,0,0,0V8l0,0h.36a.36.36,0,0,0,.34.25.37.37,0,0,0,0-.73.36.36,0,0,0-.34.24H118a.25.25,0,0,0-.15.06A.38.38,0,0,0,117.73,7.88Zm4.57,1.38a.4.4,0,0,0-.1-.17A.45.45,0,0,0,122,9h-.72a.38.38,0,0,0-.32-.19.37.37,0,1,0,.34.49h.61s0,0,0,0l0,0v.82a.37.37,0,0,0-.23.34.36.36,0,0,0,.36.36.35.35,0,0,0,.36-.36.37.37,0,0,0-.19-.32V9.36A.31.31,0,0,0,122.3,9.26Zm-2.77,2,0,0h-.26a.36.36,0,0,0-.71.12.37.37,0,0,0,.72.08h.25a.24.24,0,0,0,.13-.07.2.2,0,0,0,.08-.12.24.24,0,0,0,0-.08v-1a.64.64,0,0,1,0-.07.26.26,0,0,0-.22-.18h-.83a.37.37,0,0,0-.36-.28.37.37,0,1,0,.34.49h.83l0,0s0,0,0,0h0v1.06Zm-.23,1.42a.35.35,0,0,0,.33-.23h.73a.33.33,0,0,0,.1-.06.24.24,0,0,0,.1-.18.15.15,0,0,0,0-.06v-.31h0a.07.07,0,0,1,0-.05h2.25a.35.35,0,0,0,.33.23.36.36,0,0,0,0-.72.35.35,0,0,0-.34.26h-2.24a.28.28,0,0,0-.25.19.22.22,0,0,0,0,.11v.33l0,.05h-.67a.36.36,0,0,0-.34-.27.37.37,0,0,0-.37.37A.36.36,0,0,0,119.3,12.7Zm7.31-3.29,0,0V7.63a.36.36,0,1,0-.4-.36.35.35,0,0,0,.21.33V9.36a.22.22,0,0,0,0,.13.45.45,0,0,0,.1.09l.13,0H128s0,0,0,0l0,0V11a0,0,0,0,1,0,0,.05.05,0,0,1,0,0l0,0h-.29a.34.34,0,0,0-.14-.25.37.37,0,0,0-.51.06.37.37,0,0,0,.07.51.36.36,0,0,0,.51-.06l0-.06H128a.36.36,0,0,0,.12-.08.23.23,0,0,0,.06-.12.28.28,0,0,0,0-.09V9.68a.33.33,0,0,0,0-.13.28.28,0,0,0-.1-.09.33.33,0,0,0-.14,0h-1.32Zm-3,1.92a.34.34,0,0,0,.2.22.32.32,0,0,0,.14,0h2.32a.31.31,0,0,0,.13-.06.35.35,0,0,0,.1-.11.43.43,0,0,0,0-.14.09.09,0,0,0,0,0V10.7a.36.36,0,1,0-.52-.33.35.35,0,0,0,.27.35v.51s0,0,0,0,0,0,0,0l0,0h-2.3a.13.13,0,0,1-.06-.07s0,0,0,0v-.58l0-.05a.1.1,0,0,1,.07,0h.89a.35.35,0,0,0,.32.2.37.37,0,0,0,.37-.36.38.38,0,0,0-.37-.37.36.36,0,0,0-.34.27h-.92a.36.36,0,0,0-.23.17.24.24,0,0,0-.05.14v.64S123.61,11.31,123.61,11.33Zm-3.55,2.25a.38.38,0,0,0-.34.22h-.32l-.06,0a.08.08,0,0,1,0,0,.14.14,0,0,1,0-.06v-.59a.5.5,0,0,0-.09-.21.36.36,0,0,0-.18-.12l-.11,0h-.11a.37.37,0,0,0-.33-.2.36.36,0,1,0,0,.72.35.35,0,0,0,.33-.22h.12a.05.05,0,0,1,0,0,.14.14,0,0,1,0,.06,0,0,0,0,1,0,0v.51a.3.3,0,0,0,.05.21.35.35,0,0,0,.16.16.36.36,0,0,0,.2.06h.33a.38.38,0,0,0,.33.2.36.36,0,0,0,0-.72ZM123,14a.36.36,0,0,0-.37.36.38.38,0,0,0,.24.35v.34l0,0s0,0,0,0H121.2l0,0h0V15a.35.35,0,0,0,.3-.35.37.37,0,0,0-.37-.36.36.36,0,0,0-.36.36A.36.36,0,0,0,121,15v.08a.14.14,0,0,0,0,.06.27.27,0,0,0,.08.1l.07,0h1.6a.2.2,0,0,0,.11,0,.28.28,0,0,0,.09-.1.2.2,0,0,0,0-.07v-.31a.37.37,0,0,0,.34-.37A.36.36,0,0,0,123,14Zm6-.73a.37.37,0,0,0,.51-.06.36.36,0,0,0-.06-.51.38.38,0,0,0-.17-.08s0,0,0,0a.41.41,0,0,0-.11-.07l-.07,0h-2.45l0,0a0,0,0,0,1,0,0v-.22h0v0a.43.43,0,0,0,0-.12.41.41,0,0,0-.1-.09.23.23,0,0,0-.14,0h-.9a.34.34,0,0,0-.12.06.23.23,0,0,0-.08.11.27.27,0,0,0,0,.12v.33a.37.37,0,0,0-.23.34.36.36,0,1,0,.45-.35v-.35s0,0,0,0h.92l0,0v.29a.21.21,0,0,0,0,.13.26.26,0,0,0,.09.09.23.23,0,0,0,.14,0H129l0,0A.36.36,0,0,0,129,13.31Zm-8.18.13h3.4a.29.29,0,0,0,.18-.12.23.23,0,0,0,0-.11h0a.36.36,0,1,0-.44-.35.37.37,0,0,0,.23.34h0a.1.1,0,0,1,0,0H120.8a.35.35,0,0,0,.15-.29.36.36,0,1,0-.72,0,.36.36,0,0,0,.34.36.22.22,0,0,0,.09.1.25.25,0,0,0,.11,0Zm-2.49-1.21a.37.37,0,0,0-.36-.37.36.36,0,0,0-.35.29h-.13s0,0,0,0,0,0,0,0V10a.19.19,0,0,0,0-.1.29.29,0,0,0-.12-.15l-.09,0h-.56l0,0,0,0V8.45a0,0,0,0,1,0,0l0,0h.58a.37.37,0,0,0,.18-.05.36.36,0,0,0,.11-.16.34.34,0,0,0,0-.1v-1h0a.37.37,0,0,0,.36-.37.36.36,0,1,0-.72,0,.36.36,0,0,0,.12.28V8.11l0,0h-.6l-.1,0a.28.28,0,0,0-.15.11.18.18,0,0,0,0,.09.17.17,0,0,0,0,.1V9.72a.38.38,0,0,0,.08.17.31.31,0,0,0,.18.09h.56s0,0,0,0h0v2a.25.25,0,0,0,.06.18.24.24,0,0,0,.15.11l.09,0h.13a.37.37,0,0,0,.33.21A.36.36,0,0,0,118.33,12.23Zm1.6-6.33a.36.36,0,0,0,.33-.2h1a.2.2,0,0,0,.11,0l.09,0a.38.38,0,0,0,.37-.37.37.37,0,0,0-.37-.36.36.36,0,0,0-.36.36.35.35,0,0,0,0,.14h-.89a.35.35,0,0,0-.36-.29.36.36,0,1,0,0,.72Zm3.54.15a.36.36,0,0,0,.33-.23h.61a.36.36,0,0,0-.22.33.37.37,0,0,0,.36.37.37.37,0,0,0,.36-.37.35.35,0,0,0-.27-.35h0a.41.41,0,0,0-.07-.11.26.26,0,0,0-.11-.07h-.63a.38.38,0,0,0-.36-.3.37.37,0,1,0,0,.73Zm.23,2.51.08,0h1.63a.3.3,0,0,0,.14-.11.27.27,0,0,0,.06-.17V8a.36.36,0,0,0,.29-.36.36.36,0,1,0-.72,0,.35.35,0,0,0,.23.33V8.3a.17.17,0,0,1,0,0s0,0,0,0h-1.56a.08.08,0,0,1,0,0s0,0,0,0v-.6a.36.36,0,0,0,.27-.34.38.38,0,0,0-.37-.37.37.37,0,0,0-.36.37.35.35,0,0,0,.26.34v.64l0,.09A.3.3,0,0,0,123.7,8.56Zm1.64-3a.36.36,0,0,0,.36-.29h.52l0,0v.19a.37.37,0,0,0,0,.11.2.2,0,0,0,.09.09l.11,0h.64a.36.36,0,0,0,.71-.11.37.37,0,0,0-.37-.36.35.35,0,0,0-.33.24h-.64s0,0,0,0,0,0,0,0V5.34a.56.56,0,0,0,0-.12.34.34,0,0,0-.21-.14h-.59a.37.37,0,0,0-.33-.21.37.37,0,0,0,0,.73Zm3.34,1.47A.37.37,0,0,0,129,6.7a.35.35,0,0,0-.29-.35v0a.08.08,0,0,1,0,0s0,0,0,0h.4s0,0,0,0,0,0,0,0V8a.24.24,0,0,0,0,.09.13.13,0,0,0,0,.09.28.28,0,0,0,.16.12h.41a.23.23,0,0,0,.1.12.36.36,0,0,0,.51-.06.37.37,0,0,0-.06-.51.38.38,0,0,0-.52.06.52.52,0,0,0-.06.16h-.32a0,0,0,0,1,0,0s0,0,0,0,0,0,0,0V6.32a.38.38,0,0,0,0-.1.31.31,0,0,0-.12-.16l-.08,0h-.5a.39.39,0,0,0-.17.11.3.3,0,0,0-.06.18v.07a.36.36,0,0,0-.2.32A.37.37,0,0,0,128.68,7.07Zm-9.75-.5a.35.35,0,0,0,.31-.18h1.6l0,0V7a.36.36,0,1,0,.45.35A.37.37,0,0,0,121.1,7V6.41h0a.31.31,0,0,0-.06-.13.28.28,0,0,0-.13-.09h-1.62a.37.37,0,0,0-.36-.32.36.36,0,1,0,0,.72Zm5.66,8.27a.36.36,0,0,0-.26-.35V14.1a.06.06,0,0,1,0,0l0,0h3.18a.23.23,0,0,0,.14,0,.27.27,0,0,0,.11-.1.33.33,0,0,0,0-.15v-.05a.36.36,0,0,0-.18-.68.36.36,0,0,0,0,.72h0s0,0,0,0,0,0,0,0h-3.24l-.07,0a.31.31,0,0,0-.11.09.38.38,0,0,0-.06.13v.43a.37.37,0,0,0-.25.35.36.36,0,1,0,.72,0Zm.6,1.05h.75a.32.32,0,0,0,.19-.07.3.3,0,0,0,.1-.17v-.58h0s0,0,0,0,0,0,0,0h1.85a.36.36,0,1,0,.07-.23v0h-2a.27.27,0,0,0-.15.13.36.36,0,0,0,0,.09s0,0,0,.06v.54a.05.05,0,0,1,0,.05l0,0h-.74a.35.35,0,0,0-.35-.29.36.36,0,0,0,0,.72A.38.38,0,0,0,125.19,15.89Zm5.18.23a.37.37,0,0,0,.07.51.36.36,0,0,0,.51-.06.37.37,0,0,0-.07-.51l0,0v-.54a.3.3,0,0,0,.08-.08.36.36,0,1,0-.57-.45.37.37,0,0,0,.07.51.24.24,0,0,0,.11.06V16A.72.72,0,0,0,130.37,16.12ZM131,8a.35.35,0,0,0,.47,0V9.1a.07.07,0,0,0,0,.05.28.28,0,0,0,.08.15.29.29,0,0,0,.15.09h.78l0,0a.08.08,0,0,1,0,0h0v.28a.36.36,0,0,0-.21.13.37.37,0,0,0,.07.52.36.36,0,0,0,.44-.58l-.08,0V9.45a.09.09,0,0,0,0,0,.31.31,0,0,0-.08-.15.24.24,0,0,0-.16-.07h-.77l0,0a.06.06,0,0,1,0-.05V8a.25.25,0,0,0,0-.09.36.36,0,0,0-.1-.14.37.37,0,0,0-.65-.25A.36.36,0,0,0,131,8Zm-1,.84a.36.36,0,0,0-.5.06.2.2,0,0,0-.05.09h-.66a.34.34,0,0,0-.15.06.22.22,0,0,0-.1.11l0,.08v1.59a.28.28,0,0,0,0,.15.22.22,0,0,0,.11.1.25.25,0,0,0,.15.05h.1a.28.28,0,0,0,.1.12.36.36,0,0,0,.51-.06.35.35,0,0,0-.06-.5.36.36,0,0,0-.51.06.33.33,0,0,0-.07.16h-.12s0,0,0,0,0,0,0,0V9.25l0,0h.67a.38.38,0,0,0,.13.22.36.36,0,1,0,.44-.58Zm.21,1.73a.37.37,0,0,0,.06.51.37.37,0,0,0,.51-.07.24.24,0,0,0,.06-.11h.88l0,0,0,0h0v.51a.33.33,0,0,0,.07.16.25.25,0,0,0,.15.1h.95a.27.27,0,0,0,.15-.09.29.29,0,0,0,.07-.16v-.06a.39.39,0,0,0,.19-.12.37.37,0,0,0-.06-.51.36.36,0,1,0-.45.57l.09.05v0s0,0,0,0l0,0H132l0,0a.11.11,0,0,1,0-.06V11a.32.32,0,0,0,0-.09.3.3,0,0,0-.11-.14.31.31,0,0,0-.17-.05h-.88a.38.38,0,0,0-.12-.17A.37.37,0,0,0,130.17,10.57Zm-1,8.2v-.45a.3.3,0,0,0,0-.1.27.27,0,0,0-.1-.17.39.39,0,0,0-.17-.11l-.1,0h0a.32.32,0,0,0-.13-.21.36.36,0,1,0-.44.57.36.36,0,0,0,.51-.06.43.43,0,0,0,0-.07h.08a.18.18,0,0,1,.07.05.15.15,0,0,1,0,.07v.5a.94.94,0,1,0,.23,0Zm2.23-5.4a.37.37,0,0,0,.51-.07.34.34,0,0,0-.06-.5.36.36,0,0,0-.51.06l0,.06h-.65a.24.24,0,0,0-.1.05.25.25,0,0,0-.12.19.13.13,0,0,0,0,.06v0a.45.45,0,0,0-.13.11.37.37,0,0,0,.06.51.37.37,0,0,0,.51-.07.36.36,0,0,0-.06-.51.47.47,0,0,0-.15-.06h0v0a.05.05,0,0,1,0,0h.59A.41.41,0,0,0,131.42,13.37ZM115.69,8.83h.15a.27.27,0,0,0,.16-.11.32.32,0,0,0,.06-.18V7.6l0,0h.17a.35.35,0,1,0,0-.23h-.15l-.09,0a.27.27,0,0,0-.15.24v.92a.06.06,0,0,1,0,0l0,0h-.07a.39.39,0,0,0-.35-.27.37.37,0,1,0,.33.5Zm.89,2.32a.38.38,0,0,0-.3.15v0h0V10.4a.35.35,0,0,0,0-.18.23.23,0,0,0,0-.14.37.37,0,0,0-.37-.37.37.37,0,0,0,0,.73h0v.85s0,.05,0,.06a.5.5,0,0,0,0,.13.37.37,0,0,0,.19.18l.07,0a.36.36,0,1,0,.32-.53Z" fill="#0076be" fill-rule="evenodd"/><path d="M2.5,19H5.19A2.67,2.67,0,0,1,8.12,21.8a2.74,2.74,0,0,1-2.93,2.87H3.63v4.11H2.5Zm2.59,4.69A1.72,1.72,0,0,0,7,21.8,1.69,1.69,0,0,0,5.09,20H3.63v3.68Z" fill="#0076be"/><path d="M12.68,21.31a3.83,3.83,0,0,1,0,7.65,3.83,3.83,0,0,1,0-7.65Zm0,6.64a2.66,2.66,0,0,0,2.69-2.82,2.68,2.68,0,1,0-5.35,0A2.65,2.65,0,0,0,12.66,28Z" fill="#0076be"/><path d="M22.63,23l-1.94,5.79H19.47L17,21.49h1.2l1.9,6s0,0,2-6h1.09l1.94,6,1.92-6h1.21l-2.46,7.29H24.57Z" fill="#0076be"/><path d="M32.4,21.31A3.39,3.39,0,0,1,35.86,25s0,.2,0,.34H30A2.47,2.47,0,0,0,32.63,28a2.67,2.67,0,0,0,2.27-1.14l.72.53a3.36,3.36,0,0,1-3,1.59,3.6,3.6,0,0,1-3.74-3.8A3.59,3.59,0,0,1,32.4,21.31Zm2.33,3.23a2.24,2.24,0,0,0-2.33-2.28,2.36,2.36,0,0,0-2.34,2.28Z" fill="#0076be"/><path d="M40.61,22.42c-1.67,0-2.16,1.31-2.16,2.87v3.49H37.34V21.49h1.1v1.22a2.25,2.25,0,0,1,2.17-1.4Z" fill="#0076be"/><path d="M44.89,21.31A3.39,3.39,0,0,1,48.35,25s0,.2,0,.34H42.5A2.47,2.47,0,0,0,45.12,28a2.64,2.64,0,0,0,2.26-1.14l.73.53a3.38,3.38,0,0,1-3,1.59,3.6,3.6,0,0,1-3.74-3.8A3.59,3.59,0,0,1,44.89,21.31Zm2.33,3.23a2.24,2.24,0,0,0-2.33-2.28,2.36,2.36,0,0,0-2.34,2.28Z" fill="#0076be"/><path d="M56.5,28.78H55.42V27.63A3,3,0,0,1,52.9,29a3.55,3.55,0,0,1-3.56-3.81c0-2.24,1.4-3.84,3.48-3.84a3,3,0,0,1,2.56,1.36v-4H56.5Zm-3.56-6.46a2.57,2.57,0,0,0-2.46,2.84,2.49,2.49,0,1,0,4.94,0A2.54,2.54,0,0,0,52.94,22.32Z" fill="#0076be"/><path d="M61.84,18.65H63v4a3,3,0,0,1,2.58-1.36c2.06,0,3.47,1.6,3.47,3.84A3.55,3.55,0,0,1,65.44,29a3,3,0,0,1-2.53-1.33v1.15H61.84ZM65.37,28a2.56,2.56,0,0,0,2.5-2.8,2.57,2.57,0,0,0-2.47-2.84,2.54,2.54,0,0,0-2.49,2.84A2.56,2.56,0,0,0,65.37,28Z" fill="#0076be"/><path d="M71.39,31.28l1-2.58-3-7.21h1.21L73,27.35l2.24-5.86h1.18L72.5,31.28Z" fill="#0076be"/></svg>