<svg id="Capa_1" xmlns="http://www.w3.org/2000/svg" width="81" height="32"><style>.st0{fill:#fff}</style><path class="st0" d="M65.5 12.8L61.3 17l4.2 4.2c.6.6.6 1.7 0 2.3-.3.3-.7.5-1.1.5s-.8-.2-1.1-.5L59 19.3l-4.2 4.2c-.4.3-.8.5-1.2.5s-.8-.2-1.1-.5c-.6-.6-.6-1.7 0-2.3l4.2-4.2-4.2-4.2c-.6-.6-.6-1.7 0-2.3s1.7-.6 2.3 0l4.2 4.2 4.2-4.2c.6-.6 1.7-.6 2.3 0 .7.6.7 1.6 0 2.3zm-53.3 9.5l2.1 2.4c.3.3.7.3 1 0l2.1-2.4h8.1c.4 0 .7-.3.7-.7V12c0-.4-.3-.7-.7-.7H10.7c-.4 0-.7.3-.7.7v9.6c0 .4.3.7.7.7h1.5zm.7-7.9c0-.1.1-.2.2-.2h9.3c.1 0 .2.1.2.2v.4c0 .1-.1.2-.2.2h-9.3c-.1 0-.2-.1-.2-.2v-.4zm0 2.2c0-.1.1-.2.2-.2h9.3c.1 0 .2.1.2.2v.4c0 .1-.1.2-.2.2h-9.3c-.1 0-.2-.1-.2-.2v-.4zm0 2.2c0-.1.1-.2.2-.2h6.3c.1 0 .2.1.2.2v.4c0 .1-.1.2-.2.2h-6.3c-.1 0-.2-.1-.2-.2v-.4z"/></svg>